HIERARCHY
ROOT Hips
{
	OFFSET 0.00000 0.00000 0.00000
	CHANNELS 6 Xposition Yposition Zposition Zrotation Yrotation Xrotation 
	JOINT LHipJoint
	{
		OFFSET 0 0 0
		CHANNELS 3 Zrotation Yrotation Xrotation
		JOINT LeftUpLeg
		{
			OFFSET 1.37590 -1.78394 0.89329
			CHANNELS 3 Zrotation Yrotation Xrotation
			JOINT LeftLeg
			{
				OFFSET 2.47928 -6.81178 0.00000
				CHANNELS 3 Zrotation Yrotation Xrotation
				JOINT LeftFoot
				{
					OFFSET 2.63345 -7.23535 0.00000
					CHANNELS 3 Zrotation Yrotation Xrotation
					JOINT LeftToeBase
					{
						OFFSET 0.23938 -0.65768 2.27012
						CHANNELS 3 Zrotation Yrotation Xrotation
						End Site
						{
							OFFSET 0.00000 -0.00000 1.18363
						}
					}
				}
			}
		}
	}
	JOINT RHipJoint
	{
		OFFSET 0 0 0
		CHANNELS 3 Zrotation Yrotation Xrotation
		JOINT RightUpLeg
		{
			OFFSET -1.33617 -1.78394 0.89329
			CHANNELS 3 Zrotation Yrotation Xrotation
			JOINT RightLeg
			{
				OFFSET -2.56922 -7.05888 0.00000
				CHANNELS 3 Zrotation Yrotation Xrotation
				JOINT RightFoot
				{
					OFFSET -2.56568 -7.04915 0.00000
					CHANNELS 3 Zrotation Yrotation Xrotation
					JOINT RightToeBase
					{
						OFFSET -0.27533 -0.75646 2.18105
						CHANNELS 3 Zrotation Yrotation Xrotation
						End Site
						{
							OFFSET -0.00000 -0.00000 1.15233
						}
					}
				}
			}
		}
	}
	JOINT LowerBack
	{
		OFFSET 0 0 0
		CHANNELS 3 Zrotation Yrotation Xrotation
		JOINT Spine
		{
			OFFSET 0.06190 2.15152 -0.00935
			CHANNELS 3 Zrotation Yrotation Xrotation
			JOINT Spine1
			{
				OFFSET 0.06334 2.15332 0.00872
				CHANNELS 3 Zrotation Yrotation Xrotation
				JOINT Neck
				{
					OFFSET 0 0 0
					CHANNELS 3 Zrotation Yrotation Xrotation
					JOINT Neck1
					{
						OFFSET -0.04202 1.66908 0.23524
						CHANNELS 3 Zrotation Yrotation Xrotation
						JOINT Head
						{
							OFFSET 0.07510 1.69357 -0.24440
							CHANNELS 3 Zrotation Yrotation Xrotation
							End Site
							{
								OFFSET 0.02556 1.71719 -0.11000
							}
						}
					}
				}
				JOINT LeftShoulder
				{
					OFFSET 0 0 0
					CHANNELS 3 Zrotation Yrotation Xrotation
					JOINT LeftArm
					{
						OFFSET 3.67168 1.26306 -0.41342
						CHANNELS 3 Zrotation Yrotation Xrotation
						JOINT LeftForeArm
						{
							OFFSET 4.68510 -0.00000 -0.00000
							CHANNELS 3 Zrotation Yrotation Xrotation
							JOINT LeftHand
							{
								OFFSET 3.39626 -0.00000 -0.00000
								CHANNELS 3 Zrotation Yrotation Xrotation
								JOINT LeftFingerBase
								{
									OFFSET 0 0 0
									CHANNELS 3 Zrotation Yrotation Xrotation
									JOINT LeftHandIndex1
									{
										OFFSET 0.48608 -0.00000 -0.00000
										CHANNELS 3 Zrotation Yrotation Xrotation
										End Site
										{
											OFFSET 0.39189 -0.00000 -0.00000
										}
									}
								}
								JOINT LThumb
								{
									OFFSET 0 0 0
									CHANNELS 3 Zrotation Yrotation Xrotation
									End Site
									{
										OFFSET 0.39787 -0.00000 0.39787
									}
								}
							}
						}
					}
				}
				JOINT RightShoulder
				{
					OFFSET 0 0 0
					CHANNELS 3 Zrotation Yrotation Xrotation
					JOINT RightArm
					{
						OFFSET -3.04136 1.42992 -0.76390
						CHANNELS 3 Zrotation Yrotation Xrotation
						JOINT RightForeArm
						{
							OFFSET -5.55576 -0.00000 -0.00000
							CHANNELS 3 Zrotation Yrotation Xrotation
							JOINT RightHand
							{
								OFFSET -3.32774 -0.00000 -0.00000
								CHANNELS 3 Zrotation Yrotation Xrotation
								JOINT RightFingerBase
								{
									OFFSET 0 0 0
									CHANNELS 3 Zrotation Yrotation Xrotation
									JOINT RightHandIndex1
									{
										OFFSET -0.50763 -0.00000 -0.00000
										CHANNELS 3 Zrotation Yrotation Xrotation
										End Site
										{
											OFFSET -0.40926 -0.00000 -0.00000
										}
									}
								}
								JOINT RThumb
								{
									OFFSET 0 0 0
									CHANNELS 3 Zrotation Yrotation Xrotation
									End Site
									{
										OFFSET -0.41551 -0.00000 0.41551
									}
								}
							}
						}
					}
				}
			}
		}
	}
}
MOTION
Frames: 7
Frame Time: .0083333
33.3467 17.5951 6.2087 0 0 0 0 0 0 -21 0 0 0 0 0 0 0 0 0 0 0 0 0 0 21 0 0 0 0 0 0 0 0 0 0 0 0 0 0 0 0 0 0 0 0 0 0 -16 0 0 21 0 0 11 0 0 0 -8 0 0 0 0 0 0 0 0 0 0 0 0 0 0 0 0 0 0 0 0 8 0 0 0 0 0 0 0 0 0 0 0 0 0 0 0 0 0
33.3467 17.5951 6.2087 -35.0081 -87.1928 41.6598 0.0000 0.0000 0.0000 -20.2639 -7.9022 -7.7331 1.2176 6.9993 19.7133 0.4672 -5.0088 -12.1737 0.1345 -2.3640 -6.5127 0.0000 0.0000 0.0000 18.0172 -1.4345 -33.7670 -10.0715 -17.4499 59.7271 0.4232 -14.4634 -14.7849 -0.1140 -2.1773 5.9958 0.4333 -1.4681 0.5992 0.6809 -1.9635 0.8091 0.4566 -0.9834 0.5015 -10.7681 -5.0503 -4.7622 7.5208 -6.4003 3.6893 3.7537 -3.1433 2.4577 0.0000 0.0000 0.0000 -92.1403 -3.0520 -20.5114 7.0977 -12.0800 -0.7520 -0.0000 -0.0000 56.8645 13.6698 20.3544 4.8355 -7.1250 0.0000 -0.0000 -14.7343 50.2922 -1.9591 0.0000 0.0000 0.0000 88.4676 -6.3758 5.0830 -8.4296 14.2468 -1.0553 0.0000 0.0000 25.3383 -6.8952 -22.5796 2.6585 7.1250 -0.0000 -0.0000 22.1750 -51.3316 -3.6084
33.2369 17.6079 6.2132 -35.0289 -87.2925 41.7200 0.0000 0.0000 0.0000 -20.3952 -7.5599 -7.1070 1.1513 6.8129 19.1624 0.4687 -4.9241 -12.1901 0.1147 -2.1833 -6.0124 0.0000 0.0000 0.0000 17.9671 -1.1523 -34.4968 -9.6217 -17.1916 58.2163 0.3728 -14.4316 -15.5845 -0.0829 -1.8571 5.1108 0.3712 -1.5370 0.6269 0.7029 -2.0579 0.9713 0.5119 -1.0315 0.6554 -10.5492 -5.0460 -5.7967 7.5643 -6.3171 3.9361 3.7101 -3.0791 2.6868 -0.0000 0.0000 0.0000 -92.0614 -3.9439 -16.7714 7.2865 -12.3897 -0.7920 -0.0000 -0.0000 54.4838 13.1196 21.0111 4.7769 -7.1250 0.0000 -0.0000 -15.5303 50.8471 -2.2847 -0.0000 0.0000 0.0000 88.4841 -5.8529 5.9536 -8.6216 14.5553 -1.1031 0.0000 0.0000 24.5357 -7.4062 -22.2957 2.8233 7.1250 -0.0000 -0.0000 21.5486 -51.1511 -3.3995
33.1289 17.6180 6.2171 -34.4705 -87.4113 41.2171 0.0000 0.0000 0.0000 -20.5895 -7.2116 -6.6040 1.1041 6.6763 18.7598 0.4767 -4.7691 -12.2883 0.1324 -2.3453 -6.4609 0.0000 0.0000 0.0000 17.8791 -0.8354 -35.1630 -9.1012 -16.8724 56.4395 0.4004 -14.8532 -15.9629 -0.0530 -1.4859 4.0869 0.2880 -1.6500 0.1541 0.7091 -2.2167 1.2870 0.5434 -1.1123 1.2482 -10.5499 -4.9234 -6.0795 7.8906 -6.1306 3.5927 3.8178 -2.9697 2.6241 0.0000 -0.0000 0.0000 -91.9566 -4.8127 -12.5762 7.5965 -12.8967 -0.8598 -0.0000 -0.0000 51.4572 12.8416 21.1145 4.6945 -7.1250 0.0000 -0.0000 -15.8403 50.9031 -2.3545 0.0000 -0.0000 0.0000 88.4669 -5.1064 6.9474 -8.8218 14.8760 -1.1539 0.0000 0.0000 23.7379 -7.7103 -22.5150 2.9678 7.1250 -0.0000 -0.0000 21.3747 -51.4043 -3.5068
33.0210 17.6223 6.2213 -34.6347 -87.5600 41.4616 0.0000 0.0000 0.0000 -20.7648 -6.9388 -6.0609 1.0478 6.5093 18.2696 0.4834 -4.6225 -12.3712 0.1424 -2.4320 -6.7011 0.0000 0.0000 0.0000 17.8138 -0.5941 -35.7260 -8.5553 -16.5129 54.5391 0.3797 -14.8859 -16.3522 -0.0650 -1.6452 4.5261 0.1396 -1.7444 0.4216 0.7882 -2.3370 1.0035 0.7207 -1.1733 0.8181 -10.3634 -4.7660 -5.8643 7.8372 -5.9512 3.5407 3.7869 -2.8836 2.5497 -0.0000 0.0000 0.0000 -91.9732 -4.5887 -7.6411 8.1408 -13.7809 -0.9854 -0.0000 -0.0000 47.4943 12.6887 21.3383 4.6836 -7.1250 0.0000 -0.0000 -16.0834 51.0957 -2.4696 -0.0000 0.0000 0.0000 88.3142 -5.3216 8.1580 -9.1141 15.3421 -1.2301 0.0000 0.0000 22.8045 -8.1231 -22.3229 3.1032 7.1250 -0.0000 -0.0000 20.8876 -51.2923 -3.3616
32.9125 17.6274 6.2251 -34.9415 -87.6898 41.8422 0.0000 0.0000 0.0000 -20.9160 -6.6514 -5.5432 0.9992 6.3614 17.8366 0.4909 -4.4860 -12.4664 0.1498 -2.4937 -6.8723 0.0000 0.0000 0.0000 17.7624 -0.3155 -36.2986 -8.0203 -16.1342 52.6358 0.3684 -14.9694 -16.6841 -0.0636 -1.6270 4.4760 0.0404 -1.8306 0.4595 0.8468 -2.4514 0.9425 0.8383 -1.2312 0.7426 -10.3012 -4.6428 -5.9852 7.9619 -5.7837 3.4605 3.8226 -2.7934 2.5323 0.0000 -0.0000 0.0000 -91.8996 -4.7885 -3.3692 8.6651 -14.6252 -1.1141 -0.0000 -0.0000 44.2033 12.5081 21.6671 4.6825 -7.1250 0.0000 -0.0000 -16.4020 51.3850 -2.6394 0.0000 -0.0000 0.0000 88.2137 -5.1473 9.2488 -9.3721 15.7514 -1.2993 0.0000 0.0000 21.9289 -8.5694 -22.3180 3.2751 7.1250 -0.0000 -0.0000 20.4637 -51.3603 -3.3234
32.8038 17.6301 6.2284 -35.3969 -87.8098 42.3808 0.0000 0.0000 0.0000 -21.0512 -6.3921 -5.0477 0.9555 6.2247 17.4379 0.4997 -4.3624 -12.5790 0.1585 -2.5650 -7.0699 0.0000 0.0000 0.0000 17.7278 -0.0513 -36.8107 -7.4617 -15.7086 50.5995 0.3636 -15.0356 -16.8785 -0.0650 -1.6443 4.5237 -0.0615 -1.9218 0.5580 0.9251 -2.5713 0.7956 0.9817 -1.2913 0.5470 -10.2867 -4.4973 -5.9340 8.0958 -5.5988 3.3653 3.8733 -2.6983 2.4823 0.0000 -0.0000 0.0000 -91.8261 -4.7949 0.7180 9.2813 -15.6076 -1.2747 -0.0000 -0.0000 40.9804 12.4429 21.9968 4.7245 -7.1250 0.0000 -0.0000 -16.6135 51.6930 -2.8028 0.0000 -0.0000 0.0000 88.0754 -5.0974 10.3776 -9.6451 16.1825 -1.3744 0.0000 0.0000 21.0449 -9.0551 -22.3650 3.4702 7.1250 -0.0000 -0.0000 20.0272 -51.4839 -3.3099
